<svg xmlns="http://www.w3.org/2000/svg" width="18px" height="14px">
<linearGradient id="grad" gradientUnits="userSpaceOnUse" x1="4" y1="12" x2="4" y2="0">
	<stop  offset="0" style="stop-color:#595959"/>
	<stop  offset="0.78" style="stop-color:#EEE"/>
</linearGradient>
<path fill="url(#grad)" d="M0,4h3l5-4v12L3,8H0V4z"/>
<path fill="url(#grad)" d="M10.5,3C10.776,3,11,3.224,11,3.5c0,0,1,1.308,1,2.5c0,1.303-1,2.5-1,2.5C11,8.776,10.776,9,10.5,9S10,8.776,10,8.5c0,0,1-1.278,1-2.5c0-1.277-1-2.5-1-2.5C10,3.224,10.224,3,10.5,3z"/>
<path fill="url(#grad)" d="M12.5,2C12.776,2,13,2.224,13,2.5c0,0,1,1.709,1,3.5c0,1.707-1,3.5-1,3.5c0,0.276-0.224,0.5-0.5,0.5S12,9.776,12,9.5c0,0,1-1.793,1-3.5c0-1.791-1-3.5-1-3.5C12,2.224,12.224,2,12.5,2z"/>
<path fill="url(#grad)" d="M14.5,1C14.776,1,15,1.224,15,1.5c0,0,1,2.229,1,4.5c0,2.229-1,4.5-1,4.5c0,0.276-0.224,0.5-0.5,0.5S14,10.776,14,10.5c0,0,1-2.304,1-4.5c0-2.301-1-4.5-1-4.5C14,1.224,14.224,1,14.5,1z"/>
</svg>
